<?xml version="1.0" encoding="UTF-8"?>
<svg id="_レイヤー_2" data-name="レイヤー 2" xmlns="http://www.w3.org/2000/svg" xmlns:xlink="http://www.w3.org/1999/xlink" viewBox="0 0 31.35 18.45">
  <defs>
    <style>
      .cls-1 {
        fill: none;
      }

      .cls-2 {
        fill: #52a0a0;
      }

      .cls-3 {
        clip-path: url(#clippath);
      }
    </style>
    <clipPath id="clippath">
      <path class="cls-1" d="M2.8,8.87c2.02-.45,3.98-.69,4.82-.77.79-.7,2.9-2.34,6.03-2.98.14-.03.3-.05.45-.08V0H.9v9.6s.36-.38,1.9-.73Z"/>
    </clipPath>
  </defs>
  <g id="_内容" data-name="内容">
    <g>
      <g>
        <path class="cls-2" d="M3.62,15.51c0,1.62,1.31,2.94,2.94,2.94s2.94-1.32,2.94-2.94-1.31-2.94-2.94-2.94c-1.62,0-2.94,1.31-2.94,2.94ZM5.45,15.51c0-.61.49-1.1,1.11-1.1.61,0,1.1.49,1.1,1.1,0,.61-.49,1.11-1.1,1.11s-1.11-.49-1.11-1.11Z"/>
        <path class="cls-2" d="M21.51,15.51c0,1.62,1.31,2.94,2.94,2.94,1.63,0,2.94-1.32,2.94-2.94,0-1.62-1.31-2.94-2.94-2.94s-2.94,1.31-2.94,2.94ZM23.35,15.51c0-.61.49-1.1,1.1-1.1s1.11.49,1.11,1.1c0,.61-.49,1.11-1.11,1.11-.61,0-1.1-.49-1.1-1.11Z"/>
        <path class="cls-2" d="M.21,15.3c.18.22.61.21.89.21h1.65c0-2.1,1.7-3.8,3.8-3.8,2.1,0,3.8,1.7,3.8,3.8h10.29c0-2.1,1.7-3.8,3.8-3.8,2.1,0,3.8,1.7,3.8,3.8h1.32c.29,0,.58-.13.75-.38.94-1.37.96-3.5,1.03-4.73.07-1.23-.75-1.41-1.01-1.41-.58,0-2.09-.62-2.09-.62-2.04-1.09-4.73-2.52-8.18-2.52-2.24,0-4.66.13-6.17.44-3.63.75-5.75,2.96-5.75,2.96,0,0-2.51.22-5.08.79-1.34.3-1.95.78-2.29,1.4.53-.04,1.18-.07,1.65-.11.27-.02.44.29.28.51l-.53.74c-.05.08-.14.13-.23.13l-1.65.15c-.05.19-.09.38-.14.58-.25.88-.19,1.54.05,1.85ZM18.33,7.07c0-.22.17-.4.39-.41.43,0,.87-.01,1.31-.01,2.1,0,3.89.55,5.45,1.24.14.06.24.21.24.37v1.05c0,.22-.18.41-.4.41h-6.59c-.22,0-.4-.18-.4-.41v-2.24ZM9.66,8.98c.91-.65,2.4-1.5,4.34-1.9.68-.14,1.62-.25,2.71-.32.23-.02.43.17.43.4v2.15c0,.22-.18.41-.4.41h-6.84c-.4,0-.56-.51-.24-.74Z"/>
      </g>
      <g class="cls-3">
        <polygon class="cls-2" points="6.84 5.41 8.42 3.19 8.67 5.9 11.14 4.76 10 7.24 12.72 7.49 10.49 9.06 12.72 10.64 10 10.89 11.14 13.36 8.67 12.22 8.42 14.94 6.84 12.71 5.27 14.94 5.02 12.22 2.54 13.36 3.68 10.89 .97 10.64 3.2 9.06 .97 7.49 3.68 7.24 2.54 4.76 5.02 5.9 5.27 3.19 6.84 5.41"/>
      </g>
    </g>
  </g>
</svg>