<?xml version="1.0" encoding="UTF-8"?>
<svg id="_レイヤー_2" data-name="レイヤー 2" xmlns="http://www.w3.org/2000/svg" viewBox="0 0 21.25 21.25">
  <defs>
    <style>
      .cls-1 {
        fill: #52a0a0;
      }
    </style>
  </defs>
  <g id="_内容" data-name="内容">
    <path class="cls-1" d="M21.25,16.78c0,.27-.05.63-.15,1.06s-.21.78-.32,1.03c-.21.5-.82,1.04-1.84,1.6-.95.51-1.88.77-2.81.77-.27,0-.54-.02-.79-.05s-.55-.1-.87-.19-.56-.16-.72-.22-.44-.16-.84-.31c-.4-.15-.65-.24-.74-.27-.99-.35-1.87-.77-2.64-1.25-1.29-.79-2.62-1.88-3.99-3.25-1.37-1.37-2.46-2.7-3.25-3.99-.48-.77-.9-1.65-1.25-2.64-.03-.09-.12-.34-.27-.74s-.25-.68-.31-.84-.13-.39-.22-.72-.15-.61-.19-.87-.05-.52-.05-.79c0-.93.26-1.86.77-2.81C1.33,1.29,1.87.68,2.37.47c.25-.11.6-.22,1.03-.32s.79-.15,1.06-.15c.14,0,.25.02.32.05.18.06.45.44.8,1.15.11.19.26.46.45.81.19.35.37.67.53.96s.32.56.47.81c.03.04.12.17.26.38s.25.39.32.54.11.29.11.43c0,.2-.14.45-.43.75s-.6.58-.94.83c-.34.25-.65.52-.94.8s-.43.51-.43.69c0,.09.03.2.08.34s.09.24.13.31.11.19.21.36.16.27.17.29c.76,1.38,1.64,2.56,2.63,3.55.99.99,2.17,1.86,3.55,2.63.02.01.12.07.29.17s.29.18.36.21.17.08.31.13.25.08.34.08c.18,0,.41-.14.69-.43.28-.29.55-.6.8-.94s.53-.65.83-.94.55-.43.75-.43c.14,0,.28.04.43.11s.32.18.54.32.34.23.38.26c.25.15.52.31.81.47s.61.34.96.53.62.34.81.45c.7.35,1.09.62,1.15.8.03.07.05.18.05.32Z"/>
  </g>
</svg>